<?xml version="1.0" encoding="UTF-8"?>
<svg width="1024px" height="375px" viewBox="0 0 1024 375" version="1.1" xmlns="http://www.w3.org/2000/svg" xmlns:xlink="http://www.w3.org/1999/xlink">
    <!-- Generator: Sketch 52.3 (67297) - http://www.bohemiancoding.com/sketch -->
    <title>Group 4</title>
    <desc>Created with Sketch.</desc>
    <g id="Page-1" stroke="none" stroke-width="1" fill="none" fill-rule="evenodd">
        <g id="Group-4">
            <rect id="Rectangle" fill="#212121" x="0" y="0" width="1024" height="375" rx="23"></rect>
            <text id="Dulang-consize-&amp;-pow" font-family="Roboto-Regular, Roboto" font-size="85" font-weight="normal" fill="#534BAE">
                <tspan x="454" y="177">Dulang</tspan>
                <tspan x="718.047852" y="177" font-size="55"></tspan>
                <tspan x="454" y="277" font-size="55">consize &amp; powerful</tspan>
            </text>
            <rect id="Rectangle" fill="#534BAE" x="103" y="92" width="18" height="193"></rect>
            <ellipse id="Oval" fill="#FF8F00" cx="238" cy="188" rx="98" ry="103"></ellipse>
            <polygon id="Triangle" fill="#534BAE" points="153 286 153 91 189 189"></polygon>
            <polygon id="Triangle" fill="#534BAE" points="153 188 103 91 153 91"></polygon>
            <polygon id="Triangle" fill="#212121" points="201.321799 96.9173713 250.521401 184.978217 202.043287 198.177988"></polygon>
            <polygon id="Triangle" fill="#212121" points="275.286896 127.28291 275.286896 178.234991 202.043287 198.177988"></polygon>
            <polygon id="Triangle" fill="#534BAE" points="301 91 351 286 301 286"></polygon>
            <g id="Group" transform="translate(237.936424, 187.989311) rotate(-15.000000) translate(-237.936424, -187.989311) translate(189.224313, 90.489311)"></g>
            <polygon id="Triangle" fill="#534BAE" points="154 187 154 285 106 285"></polygon>
            <polygon id="Triangle" fill="#212121" points="275.702522 278.543612 226.75762 191.448693 275.235733 178.248921"></polygon>
            <polygon id="Triangle" fill="#212121" points="201.814128 250.108498 201.814128 198.136857 275.685539 178.022919"></polygon>
            <polygon id="Triangle" fill="#534BAE" points="401 238 401 286 301 286"></polygon>
        </g>
    </g>
</svg>